# xmcd
#
# Track frame offsets: 
#        150
#        5935
#        23576
#        45485
#        67902
#        87926
#        105246
#        125741
#        142974
#        161969
#        183614
#        207427
#
# Disc length: 2855 seconds
#
# Revision: 3
# Processed by: cddbd v1.5.2PL0 Copyright (c) Steve Scherf et al.
# Submitted via: ExactAudioCopy v0.99pb3
#
DISCID=a20b250c
DTITLE=Руки Вверх - Огонь
DYEAR=2001
DGENRE=Pop
TTITLE0=Вдох
TTITLE1=Энергия Нового Поколения
TTITLE2=DJ
TTITLE3=Огонь
TTITLE4=Песенка №5
TTITLE5=Хороший День
TTITLE6=Я Не Хочу Тебя Терять
TTITLE7=Ты Осталась Одна
TTITLE8=Мега-Полис
TTITLE9=Искуственное Дыхание
TTITLE10=Спортлото'2002
TTITLE11=Выдох
EXTD=
EXTT0=
EXTT1=
EXTT2=
EXTT3=
EXTT4=
EXTT5=
EXTT6=
EXTT7=
EXTT8=
EXTT9=
EXTT10=
EXTT11=
PLAYORDER=
